<svg width="36" height="36" xmlns="http://www.w3.org/2000/svg" xmlns:svg="http://www.w3.org/2000/svg">
 <g class="layer">
  <title>Config</title>
  <path d="m35.40484,16.05552c-0.0553,-0.49236 -0.62961,-0.86276 -1.1262,-0.86276c-1.60492,0 -3.02926,-0.94199 -3.6266,-2.39995c-0.60976,-1.49296 -0.21633,-3.23377 0.9794,-4.33073c0.37661,-0.34434 0.42252,-0.92093 0.1068,-1.32118c-0.8217,-1.04318 -1.7552,-1.98562 -2.77475,-2.80232c-0.39888,-0.31996 -0.98501,-0.27541 -1.33117,0.10771c-1.04394,1.1562 -2.91928,1.58583 -4.36845,0.98122c-1.5075,-0.63431 -2.45903,-2.16241 -2.36556,-3.80263c0.03076,-0.51553 -0.34616,-0.96349 -0.85988,-1.02333c-1.30845,-0.15149 -2.6284,-0.15589 -3.94063,-0.0103c-0.5072,0.05605 -0.88382,0.49341 -0.867,1.00243c0.05681,1.62416 -0.90548,3.1253 -2.39844,3.73688c-1.43176,0.58492 -3.29406,0.15846 -4.33588,-0.98759c-0.34434,-0.37752 -0.92017,-0.42387 -1.32178,-0.11074c-1.04955,0.82367 -2.0041,1.76671 -2.83338,2.80141c-0.32313,0.40221 -0.27541,0.98516 0.10438,1.33072c1.21937,1.10423 1.6125,2.86004 0.9794,4.37043c-0.60446,1.43994 -2.09954,2.36754 -3.81096,2.36754c-0.55537,-0.01787 -0.95062,0.35525 -1.01197,0.86033c-0.15391,1.31541 -0.15558,2.65644 -0.00742,3.9826c0.0553,0.49448 0.64657,0.86169 1.14862,0.86169c1.52553,-0.03878 2.98926,0.90502 3.60417,2.39981c0.61188,1.49296 0.218,3.23301 -0.9797,4.33149c-0.37464,0.34434 -0.42252,0.91956 -0.10619,1.31935c0.81337,1.03666 1.74777,1.97971 2.77035,2.80339c0.40146,0.32329 0.98531,0.27799 1.33329,-0.10559c1.04803,-1.15892 2.92305,-1.5878 4.36633,-0.98198c1.5119,0.63264 2.46298,2.16059 2.37011,3.80126c-0.03045,0.51553 0.34737,0.96486 0.85927,1.02333c0.6696,0.07832 1.34268,0.1171 2.01789,0.1171c0.64082,0 1.28179,-0.03499 1.92275,-0.10635c0.50781,-0.05605 0.88382,-0.49387 0.86669,-1.00304c-0.05863,-1.62339 0.90578,-3.1247 2.39693,-3.73507c1.44131,-0.58871 3.29528,-0.15786 4.3377,0.98652c0.34616,0.37676 0.91851,0.42252 1.32178,0.11059c1.04773,-0.82154 2.00047,-1.76413 2.83338,-2.80156c0.32343,-0.40146 0.27754,-0.98516 -0.10438,-1.33132c-1.21907,-1.10348 -1.61431,-2.86004 -0.98122,-4.36891c0.59506,-1.42055 2.03455,-2.37436 3.58281,-2.37436l0.21663,0.00575c0.50265,0.04076 0.96456,-0.34632 1.0253,-0.85911c0.15467,-1.31662 0.15635,-2.65613 0.00758,-3.98276l0,0.00005zm-17.40489,12.04219c-5.57691,0 -10.09762,-4.52071 -10.09762,-10.09747s4.52085,-10.09747 10.09762,-10.09747s10.09762,4.52071 10.09762,10.09747c0,1.89291 -0.52189,3.66341 -1.42828,5.17743l-4.42148,-4.42163c0.3201,-0.75474 0.48917,-1.57295 0.48902,-2.41738c0,-1.65354 -0.64399,-3.20802 -1.81338,-4.37709c-1.16907,-1.16907 -2.72354,-1.81292 -4.37678,-1.81292c-0.55174,0 -1.1009,0.07332 -1.63219,0.218c-0.23269,0.06347 -0.42296,0.25526 -0.48492,0.48841c-0.06333,0.23845 0.00803,0.4828 0.19437,0.6693c0,0 2.18286,2.19968 2.91321,2.92987c0.0765,0.0765 0.07636,0.25905 0.06559,0.3248l-0.00682,0.04802c-0.07362,0.80292 -0.21557,1.76671 -0.33268,2.13711c-0.01575,0.01561 -0.0306,0.02878 -0.04665,0.04484c-0.01682,0.01682 -0.03227,0.03302 -0.04848,0.04969c-0.37524,0.12043 -1.35389,0.26405 -2.16953,0.33708l0.00016,-0.0044l-0.03666,0.00924c-0.00651,0.00076 -0.01864,0.00167 -0.03469,0.00167c-0.08817,0 -0.21785,-0.02469 -0.33571,-0.14241c-0.76019,-0.76019 -2.85746,-2.84246 -2.85746,-2.84246c-0.18815,-0.18755 -0.38115,-0.22694 -0.50977,-0.22694c-0.29981,0 -0.56825,0.21663 -0.65278,0.52735c-0.57734,2.13651 0.03469,4.43466 1.59765,5.99777c1.16937,1.16923 2.724,1.81307 4.37755,1.81307c0.84443,0 1.66264,-0.16891 2.41722,-0.48902l4.4695,4.4695c-1.56916,1.0041 -3.43253,1.58856 -5.43361,1.58856l0,-0.00001z" fill="#e5e5e5" id="svg_1"/>
  <g id="svg_2"/>
  <g id="svg_3"/>
  <g id="svg_4"/>
  <g id="svg_5"/>
  <g id="svg_6"/>
  <g id="svg_7"/>
  <g id="svg_8"/>
  <g id="svg_9"/>
  <g id="svg_10"/>
  <g id="svg_11"/>
  <g id="svg_12"/>
  <g id="svg_13"/>
  <g id="svg_14"/>
  <g id="svg_15"/>
  <g id="svg_16"/>
 </g>
</svg>