<svg width="36" height="36" xmlns="http://www.w3.org/2000/svg" xmlns:svg="http://www.w3.org/2000/svg">
 <g class="layer">
  <title>Edit</title>
  <g id="svg_1">
   <g id="svg_2">
    <path d="m33.51307,10.92819l0.82193,-0.80764l0.20727,-0.20012l0.10006,-0.10006c0.04288,-0.04288 0.11436,-0.11436 0.17153,-0.17868c0.23586,-0.26445 0.45742,-0.6361 0.57178,-1.00776c0.06433,-0.20727 0.10006,-0.43598 0.10721,-0.6504l0.00715,-0.27159c0,-0.07147 -0.01429,-0.1358 -0.04288,-0.20727c-0.07862,-0.17153 -0.18583,-0.42169 -0.31448,-0.66469c-0.12865,-0.25015 -0.28589,-0.48601 -0.40025,-0.60037c-0.03574,-0.04288 -0.07147,-0.07862 -0.10721,-0.10006c-0.02859,-0.02144 -0.05718,-0.02859 -0.07862,-0.03574c-0.05003,-0.01429 -0.09291,-0.00715 -0.12865,0.00715c-0.07147,0.04288 -0.1215,0.11436 -0.12865,0.29304c-0.03574,0.31448 -0.07862,0.77905 -0.07862,1.29365c0,0.03574 0,0.07147 0,0.10721l0,0.04288c-0.06433,0.22156 -0.16439,0.43598 -0.30733,0.60037c-0.14294,0.17153 -0.32163,0.28589 -0.50745,0.41454c-0.37166,0.2573 -0.74331,0.5289 -1.11497,0.81478c-0.75046,0.56463 -1.50807,1.165 -2.26567,1.8011c-1.52236,1.26506 -3.05902,2.65877 -4.55994,4.10251c-1.83684,1.75822 -3.66653,3.50929 -5.50337,5.26751l-2.78027,2.65877l-0.68613,0.66469l-0.15724,0.15009c0,0 -0.01429,0.00715 -0.02144,0.00715l-0.04288,0.00715l-1.8154,0.35021c-1.25077,0.25015 -2.49439,0.49316 -3.74515,0.74331l-0.60037,0.1215c0.24301,-1.17929 0.49316,-2.36573 0.73617,-3.54503l0.37166,-1.87972l0.09291,-0.47172l0.04288,-0.23586l0.00715,-0.02859l0,-0.01429l0,-0.00715c0.00715,-0.02859 -0.00715,0.03574 -0.00715,0.02144s0.01429,-0.05718 0.00715,-0.02859c-0.01429,0.04288 -0.00715,0.02144 -0.00715,0.02859c-0.00715,0 0.01429,-0.03574 0.01429,-0.04288l0,0l0,0l0.02144,-0.02144l0.08577,-0.08577l0.16439,-0.17153c0.9077,-0.87911 1.82254,-1.75107 2.73024,-2.63018c2.86604,-2.79457 5.73208,-5.60343 8.55524,-8.44088c1.40801,-1.4223 2.80886,-2.85175 4.19543,-4.28834l0.52175,-0.54319c0.08577,-0.09291 0.1358,-0.14294 0.16439,-0.17153l0.02144,0c0.24301,0.02144 0.44313,0.04288 0.60037,0.07862c0.07862,0.01429 0.14294,0.02859 0.19298,0.05003l0.00715,0c-0.01429,-0.00715 0.02859,0.01429 -0.02144,-0.00715l0.00715,0l0.01429,0.00715l0.04288,0.01429l0.08577,0.03574l0.17153,0.07147c0.21442,0.09291 0.36451,0.15724 0.56463,0.2573c0.3788,0.19298 0.73617,0.41454 1.07923,0.67184c1.5438,1.13641 2.42291,2.70165 2.9804,2.29426c0.23586,-0.18583 0.30733,-0.70758 0.07862,-1.45804c-0.22871,-0.74331 -0.77905,-1.72963 -1.77966,-2.58015c-0.44313,-0.3788 -0.92914,-0.71472 -1.43659,-1.00061c-0.12865,-0.07147 -0.27159,-0.14294 -0.40025,-0.21442c-0.14294,-0.07862 -0.24301,-0.11436 -0.37166,-0.17868l-0.08577,-0.04288l-0.07147,-0.03574l-0.06433,-0.02859c-0.08577,-0.03574 -0.17153,-0.06433 -0.2573,-0.09291c-0.17153,-0.05003 -0.32877,-0.09291 -0.48601,-0.1215c-0.15009,-0.02859 -0.30018,-0.05718 -0.43598,-0.07862l-0.20012,-0.02859l-0.11436,-0.01429c-0.06433,-0.00715 -0.12865,-0.01429 -0.19298,-0.01429c-0.2573,-0.00715 -0.54319,0.03574 -0.79334,0.12865s-0.46457,0.22156 -0.62896,0.35736c-0.04288,0.02859 -0.08577,0.07147 -0.1358,0.11436l-0.10006,0.09291l-0.14294,0.1358l-0.28589,0.27159l-0.57178,0.54319c-1.51521,1.45089 -3.02328,2.92322 -4.50276,4.40984c-2.38003,2.40147 -4.73147,4.81009 -7.08291,7.24015l-3.51644,3.63794l-0.22871,0.23586c-0.12865,0.1358 -0.23586,0.27874 -0.32877,0.42883c-0.08577,0.15009 -0.16439,0.30733 -0.22156,0.49316c-0.07147,0.24301 -0.06433,0.29304 -0.09291,0.40739l-0.24301,1.24362l-0.49316,2.48009c-0.20012,0.72902 -0.40739,1.45804 -0.60751,2.1942l-0.15009,0.55034l-0.07147,0.27874l-0.03574,0.1358c-0.01429,0.07147 -0.04288,0.19298 -0.05003,0.29304c-0.04288,0.42169 0.07147,0.96488 0.42883,1.37227c0.17153,0.20012 0.40025,0.36451 0.6361,0.46457s0.47886,0.15009 0.72187,0.15724c0.07147,0 0.14294,0 0.21442,-0.00715l0.11436,-0.01429l0.03574,-0.00715l0.10006,-0.01429l0.07147,-0.01429l0.27874,-0.05003l0.56463,-0.09291l1.12212,-0.19298c0.75046,-0.1358 1.50092,-0.27159 2.25138,-0.40739c0.75046,-0.14294 1.50092,-0.28589 2.25138,-0.42883l0.56463,-0.10721c0.32877,-0.06433 0.71472,-0.21442 1.03635,-0.43598c0.07862,-0.05718 0.15724,-0.11436 0.22156,-0.17153l0.11436,-0.10006l0.06433,-0.06433l0.20727,-0.20012l0.40739,-0.40025c1.08638,-1.07923 2.17991,-2.15132 3.26629,-3.23055c2.16561,-2.17276 4.33122,-4.35267 6.49684,-6.52543c1.08638,-1.08638 2.17276,-2.17276 3.25199,-3.25199l1.63672,-1.60098l-0.00003,-0.00001zm-5.8107,-7.94058l0,0c-0.02144,0 -0.04288,0 -0.05003,-0.00715l0.05003,0.00715zm-18.55422,22.76394c-0.03574,0.00715 0.00715,0 0.02859,-0.00715c0.00715,0 0.00715,0 0.01429,0l-0.04288,0.00715z" fill="#e5e5e5" id="svg_3"/>
    <path d="m29.15326,20.68417c-0.35021,-0.55034 -0.64325,0.16439 -0.86482,1.23647c-0.37166,1.76537 -0.6361,3.71656 -0.81478,5.77497c-0.09291,1.0292 -0.16439,2.08699 -0.21442,3.15193c-0.01429,0.26445 -0.02144,0.53604 -0.03574,0.80764l-0.01429,0.40739l0,0.05003l0,0.02859c0,-0.02144 0,0.05003 0,-0.04288l0,0l0,0.00715l0,0.01429l-0.00715,0.10006c-0.00715,0.09291 -0.01429,0.07147 -0.02144,0.09291c-0.05718,0.23586 -0.24301,0.46457 -0.46457,0.57893c-0.14294,0.07147 -0.27159,0.10006 -0.45742,0.09291l-0.98632,-0.02144l-1.96549,-0.04288l-3.93813,-0.08577c-2.62304,-0.05003 -5.25322,-0.09291 -7.87625,-0.14294c-2.63018,-0.03574 -5.26037,-0.06433 -7.89055,-0.06433l-0.02859,0l-0.02859,0l-0.1215,-0.00715c-0.00715,-0.01429 0.03574,0 0,-0.00715c-0.04288,-0.00715 -0.07862,-0.02859 -0.1215,-0.04288c-0.07147,-0.04288 -0.15009,-0.10721 -0.19298,-0.17868c-0.05003,-0.07147 -0.07147,-0.15724 -0.07862,-0.25015l-0.01429,-0.98632c-0.01429,-1.31509 -0.03574,-2.63733 -0.06433,-3.95957c0.02859,-1.30794 0.05003,-2.60874 0.07862,-3.91668c0.05718,-4.1454 0.10006,-8.28365 0.08577,-12.42189l-0.00715,-1.47948c0,-0.14294 0.05003,-0.23586 0.14294,-0.32877c0.04288,-0.04288 0.10006,-0.07147 0.15724,-0.09291c0.02859,-0.00715 0.05718,-0.01429 0.09291,-0.02144c0.00715,0 0.01429,0 0.02144,0c0,0 0.05718,0 0.07862,0l0.19298,0l1.55095,-0.02144c2.06555,-0.03574 4.1311,-0.08577 6.18951,-0.16439c2.34429,-0.08577 4.28834,-0.41454 4.11681,-1.05779c-0.15724,-0.59322 -1.82254,-1.0292 -4.22402,-1.09353c-2.15847,-0.05718 -4.33122,-0.11436 -6.50398,-0.17153l-0.81478,-0.01429l-0.40739,-0.00715c-0.07862,0 -0.1215,-0.00715 -0.22156,0c-0.10721,0.00715 -0.22156,0.00715 -0.32877,0.02144c-0.87911,0.10006 -1.70104,0.60751 -2.17991,1.35083c-0.1215,0.18583 -0.22156,0.38595 -0.29304,0.59322c-0.07862,0.21442 -0.12865,0.40739 -0.16439,0.69328l-0.00715,0.09291l0,0.05003l-0.00715,0.10006l0,0.10721l0,0.05003l0,0.10006l0,0.40739l0,1.62957c0.01429,3.48785 0.05718,6.9757 0.10721,10.46355l0.07862,5.23178l0.04288,2.61589l0.02144,1.30794l0.00715,0.6504l0,0.16439c0,0.05718 0,0.09291 0.00715,0.18583c0.00715,0.16439 0.02859,0.32163 0.05718,0.48601c0.09291,0.57893 0.3788,1.13641 0.80764,1.55095c0.21442,0.20727 0.46457,0.3931 0.73617,0.52175c0.27874,0.12865 0.54319,0.22156 0.92914,0.27159l0.14294,0.01429l0.03574,0.00715l0.09291,0l0.07147,0.00715l0.29304,0.01429l0.58607,0.02859l1.17929,0.05003c1.57239,0.06433 3.14478,0.11436 4.71718,0.15009c3.15193,0.07147 6.31816,0.10006 9.48438,0.10006c1.58669,0 3.17337,-0.00715 4.75291,-0.00715l1.18644,-0.00715l0.30018,0l0.16439,0l0.2573,-0.01429c0.35021,-0.03574 0.69328,-0.1215 1.01491,-0.2573c0.64325,-0.28589 1.18644,-0.7719 1.52951,-1.37942c0.17153,-0.30733 0.29304,-0.62896 0.36451,-0.97917c0.02144,-0.10721 0.03574,-0.20727 0.04288,-0.31448c0.00715,-0.06433 0.00715,-0.07862 0.00715,-0.10721l0,-0.07147l0.00715,-0.14294l0,-0.07147l0,-0.15009c-0.00715,-3.17337 -0.00715,-6.3396 0.03574,-9.49868c0.02144,-0.57178 -0.22871,-1.45804 -0.40739,-1.73678l-0.00001,0z" fill="#e5e5e5" id="svg_4"/>
   </g>
  </g>
  <g id="svg_5"/>
  <g id="svg_6"/>
  <g id="svg_7"/>
  <g id="svg_8"/>
  <g id="svg_9"/>
  <g id="svg_10"/>
  <g id="svg_11"/>
  <g id="svg_12"/>
  <g id="svg_13"/>
  <g id="svg_14"/>
  <g id="svg_15"/>
  <g id="svg_16"/>
  <g id="svg_17"/>
  <g id="svg_18"/>
  <g id="svg_19"/>
 </g>
</svg>