<svg width="120" height="120" xmlns="http://www.w3.org/2000/svg" xmlns:svg="http://www.w3.org/2000/svg">
 <g class="layer">
  <title>Pressure</title>
  <rect fill="#26B999" height="99.84615" id="svg_1" width="3.02564" x="115.97436" y="10.07692"/>
  <g id="svg_31">
   <rect fill="#C74343" height="3.02564" id="svg_4" width="21.17949" x="97.82051" y="10.07692"/>
   <rect fill="#C74343" height="3.02564" id="svg_9" width="12.10256" x="106.89743" y="34.28205"/>
   <rect fill="#C74343" height="27.23077" id="svg_10" width="3.02564" x="115.97436" y="10.07692"/>
   <rect fill="#C74343" height="3.02564" id="svg_11" width="12.10256" x="106.89743" y="22.17949"/>
  </g>
  <g id="svg_27">
   <g id="svg_28">
    <path d="m34.28205,10.07692c0,20.7559 -1.44928,25.50615 -12.70769,46.59487c-8.33867,15.62138 -8.47179,23.38518 -8.47179,38.12308" fill="none" id="svg_29" stroke="#26B999" stroke-miterlimit="10" stroke-width="4"/>
   </g>
  </g>
  <g id="svg_24">
   <g id="svg_25">
    <path d="m61.51282,10.07692c0,20.7559 -1.44928,25.50615 -12.70769,46.59487c-8.33867,15.62138 -8.47179,23.38518 -8.47179,38.12308" fill="none" id="svg_26" stroke="#26B999" stroke-miterlimit="10" stroke-width="4"/>
   </g>
  </g>
  <g id="svg_21">
   <g id="svg_22">
    <path d="m88.74359,10.07692c0,20.7559 -1.44928,25.50615 -12.70769,46.59487c-8.33867,15.62138 -8.47179,23.38518 -8.47179,38.12308" fill="none" id="svg_23" stroke="#26B999" stroke-miterlimit="10" stroke-width="4"/>
   </g>
  </g>
  <g id="svg_18">
   <g id="svg_19">
    <polygon fill="#26B999" id="svg_20" points="1,94.79487228393555 13.102563858032227,109.92307662963867 25.205127716064453,94.79487228393555 "/>
   </g>
  </g>
  <g id="svg_15">
   <g id="svg_16">
    <polygon fill="#26B999" id="svg_17" points="28.23076820373535,94.79487228393555 40.33333206176758,109.92307662963867 52.43589782714844,94.79487228393555 "/>
   </g>
  </g>
  <g id="svg_12">
   <g id="svg_13">
    <polygon fill="#26B999" id="svg_14" points="55.4615364074707,94.79487228393555 67.56410217285156,109.92307662963867 79.66666412353516,94.79487228393555 "/>
   </g>
  </g>
  <rect fill="#26B999" height="3.02564" id="svg_8" width="12.10256" x="106.89743" y="46.38461"/>
  <rect fill="#26B999" height="3.02564" id="svg_7" width="12.10256" x="106.89743" y="70.58974"/>
  <rect fill="#26B999" height="3.02564" id="svg_6" width="12.10256" x="106.89743" y="82.69231"/>
  <rect fill="#26B999" height="3.02564" id="svg_5" width="12.10256" x="106.89743" y="94.79487"/>
  <rect fill="#26B999" height="3.02564" id="svg_3" width="21.17949" x="97.82051" y="58.48718"/>
  <rect fill="#26B999" height="3.02564" id="svg_2" width="21.17949" x="97.82051" y="106.89743"/>
 </g>
</svg>