<svg width="36" height="36" xmlns="http://www.w3.org/2000/svg" xmlns:svg="http://www.w3.org/2000/svg">
 <g class="layer">
  <title>brightness</title>
  <g id="svg_1">
   <path d="m8.22225,20.9339l19.55551,0c0.57479,0 1.04004,-0.46594 1.04004,-1.04004c0,-5.96497 -4.85282,-10.81779 -10.81779,-10.81779s-10.81779,4.85282 -10.81779,10.81779c0,0.57403 0.46524,1.04004 1.04004,1.04004l-0.00001,0zm9.77775,-9.77775c4.46593,0 8.16015,3.36834 8.67601,7.69768l-17.35201,0c0.51586,-4.32934 4.21008,-7.69768 8.67601,-7.69768l-0.00001,0z" fill="#e5e5e5" id="svg_2" transform="matrix(1 0 0 1 0 0)"/>
   <path d="m18,6.5813c0.57438,0 1.04004,-0.46566 1.04004,-1.04004l0,-2.35742c0,-0.57438 -0.46566,-1.04004 -1.04004,-1.04004s-1.04004,0.46566 -1.04004,1.04004l0,2.35742c0,0.57438 0.46566,1.04004 1.04004,1.04004z" fill="#e5e5e5" id="svg_3" transform="matrix(1 0 0 1 0 0)"/>
   <path d="m9.92306,7.98417c0.19262,0.33371 0.54221,0.52023 0.90164,0.52023c0.79313,0 1.30171,-0.86406 0.89977,-1.56027l-1.17871,-2.0416c-0.28719,-0.49749 -0.92335,-0.66791 -1.42069,-0.38065c-0.49749,0.28719 -0.66791,0.92321 -0.38065,1.42069l1.17864,2.0416z" fill="#e5e5e5" id="svg_4" transform="matrix(1 0 0 1 0 0)"/>
   <path d="m3.00874,12.43949l2.04153,1.17871c0.49742,0.28726 1.1335,0.11683 1.42069,-0.38065c0.28726,-0.49742 0.11683,-1.1335 -0.38065,-1.42069l-2.04153,-1.17871c-0.49749,-0.2874 -1.13357,-0.1169 -1.42069,0.38065c-0.28726,0.49742 -0.11683,1.1335 0.38065,1.42069z" fill="#e5e5e5" id="svg_5" transform="matrix(1 0 0 1 0 0)"/>
   <path d="m1.29004,20.93384l2.35742,0c0.57438,0 1.04004,-0.46566 1.04004,-1.04004s-0.46566,-1.04004 -1.04004,-1.04004l-2.35742,0c-0.57438,0 -1.04004,0.46566 -1.04004,1.04004s0.46566,1.04004 1.04004,1.04004z" fill="#e5e5e5" id="svg_6"/>
   <path d="m31.3125,19.8938c0,0.57438 0.46566,1.04004 1.04004,1.04004l2.35742,0c0.57438,0 1.04004,-0.46566 1.04004,-1.04004s-0.46566,-1.04004 -1.04004,-1.04004l-2.35742,0c-0.57438,0 -1.04004,0.46566 -1.04004,1.04004z" fill="#e5e5e5" id="svg_7" transform="matrix(1 0 0 1 0 0)"/>
   <path d="m30.43062,13.75777c0.36776,0 0.35354,-0.04396 2.56065,-1.31828c0.49749,-0.28726 0.66791,-0.92328 0.38065,-1.42069c-0.28719,-0.49755 -0.92328,-0.66798 -1.42069,-0.38065l-2.04153,1.17871c-0.91919,0.5307 -0.53902,1.94092 0.52092,1.94092l0,-0.00001z" fill="#e5e5e5" id="svg_8" transform="matrix(1 0 0 1 0 0)"/>
   <path d="m25.1753,8.50433c0.35944,0 0.70903,-0.18658 0.90164,-0.52023l1.17871,-2.0416c0.28726,-0.49749 0.11683,-1.13357 -0.38065,-1.42069c-0.49749,-0.28733 -1.13357,-0.11676 -1.42069,0.38065l-1.17871,2.0416c-0.40159,0.69551 0.1056,1.56027 0.8997,1.56027z" fill="#e5e5e5" id="svg_9" transform="matrix(1 0 0 1 0 0)"/>
   <path d="m32.62156,25.57172l-3.12636,0c-0.94297,-1.2321 -2.42814,-2.02808 -4.09637,-2.02808s-3.1534,0.79598 -4.09637,2.02808l-17.92403,0c-1.72508,0 -3.12844,1.40336 -3.12844,3.12844s1.40336,3.12844 3.12844,3.12844l17.92403,0c2.07099,2.70597 6.12555,2.70098 8.19273,0l3.12636,0c1.72508,0 3.12844,-1.40336 3.12844,-3.12844s-1.40336,-3.12844 -3.12844,-3.12844l0.00001,0zm-12.27246,4.1768l-16.97066,0c-0.57826,0 -1.04836,-0.4701 -1.04836,-1.04836s0.4701,-1.04836 1.04836,-1.04836l16.97066,0c-0.14235,0.68788 -0.14242,1.40849 0,2.09672zm7.94174,0c-0.97902,2.69668 -4.80477,2.69724 -5.784,0c-0.72907,-2.00076 0.7645,-4.12479 2.892,-4.12479c2.13291,0 3.61913,2.12951 2.892,4.12479zm4.33072,0l-2.17299,0c0.14242,-0.68795 0.14242,-1.40849 0,-2.09672l2.17299,0c0.57826,0 1.04836,0.4701 1.04836,1.04836s-0.4701,1.04836 -1.04836,1.04836z" fill="#e5e5e5" id="svg_10"/>
  </g>
 </g>
</svg>