<svg width="120" height="120" xmlns="http://www.w3.org/2000/svg" xmlns:svg="http://www.w3.org/2000/svg">
 <g class="layer">
  <title>humidity</title>
  <g id="humidity">
   <g id="Guides_For_Artboard_35_"/>
   <g id="Artwork_34_"/>
   <g id="Layer_2_34_">
    <g id="svg_2">
     <path d="m48.33754,3.89985c-2.00338,-1.74035 -6.76051,-4.53774 -7.53921,2.7075c-2.79595,18.73861 -22.92834,31.83445 -22.92834,50.30974c0,15.57355 12.62498,28.19853 28.19882,28.19853c15.57355,0 28.19853,-12.62498 28.19853,-28.19853c-0.00029,-14.13005 -5.67167,-35.41892 -25.9298,-53.01724zm-13.29788,67.97338c-0.43675,0.58445 -1.10531,0.89373 -1.78168,0.89373c-0.45785,0 -0.91946,-0.14134 -1.31632,-0.43502c-0.248,-0.18383 -6.09195,-4.59555 -7.35161,-12.93426c-1.25938,-8.33697 4.38628,-16.14991 4.62735,-16.47855c0.72551,-0.98941 2.1164,-1.20417 3.10667,-0.47751c0.98854,0.72551 1.20301,2.11409 0.47953,3.10407c-0.07313,0.10088 -4.79789,6.70415 -3.81802,13.18833c0.9764,6.4654 5.56299,9.99639 5.60924,10.03137c0.9764,0.73765 1.17758,2.12825 0.44484,3.10783z" fill="#3C97D3" id="svg_3"/>
     <path d="m34.59511,68.7654c-0.04625,-0.03497 -4.63284,-3.56597 -5.60924,-10.03137c-0.97987,-6.48418 3.74489,-13.08746 3.81802,-13.18833c0.72348,-0.98998 0.50901,-2.37857 -0.47953,-3.10407c-0.99027,-0.72637 -2.38117,-0.5119 -3.10667,0.47751c-0.24106,0.32865 -5.88673,8.14158 -4.62735,16.47855c1.25938,8.33871 7.10332,12.75043 7.35161,12.93426c0.39686,0.29367 0.85847,0.43502 1.31632,0.43502c0.67637,0 1.34493,-0.30899 1.78168,-0.89373c0.73244,-0.97958 0.53127,-2.37018 -0.44484,-3.10783z" fill="#F7F1E6" id="svg_4"/>
     <path d="m87.33283,71.76773c-1.14347,-0.99345 -3.8582,-2.58986 -4.30246,1.54524c-1.59554,10.69357 -13.08514,18.16716 -13.08514,28.71043c0,8.88761 7.20507,16.09268 16.09296,16.09268c8.88732,0 16.09181,-7.20507 16.09181,-16.09268c0,-8.06354 -3.23646,-20.21275 -14.79717,-30.25568zm-7.58892,38.79094c-0.24916,0.33356 -0.63041,0.51017 -1.01687,0.51017c-0.26101,0 -0.52462,-0.08064 -0.75123,-0.24829c-0.14163,-0.10492 -3.47665,-2.62281 -4.19522,-7.38139c-0.71857,-4.75771 2.50314,-9.21654 2.64044,-9.40385c0.4142,-0.5648 1.20822,-0.68706 1.77301,-0.27257c0.56422,0.4142 0.68677,1.20648 0.27402,1.77128c-0.0422,0.05781 -2.73843,3.82611 -2.17912,7.52649c0.55757,3.68968 3.17431,5.70491 3.20119,5.72486c0.55699,0.42056 0.67174,1.21429 0.25378,1.7733z" fill="#3C97D3" id="svg_5"/>
     <path d="m79.49042,108.78507c-0.02688,-0.01994 -2.64362,-2.03518 -3.20119,-5.72486c-0.55931,-3.70009 2.13692,-7.46868 2.17912,-7.52649c0.41276,-0.5648 0.2902,-1.35736 -0.27402,-1.77128c-0.5648,-0.41449 -1.35881,-0.29223 -1.77301,0.27257c-0.1373,0.1873 -3.35901,4.64614 -2.64044,9.40385c0.71828,4.75858 4.0533,7.27646 4.19522,7.38139c0.22632,0.16765 0.48993,0.24829 0.75123,0.24829c0.38646,0 0.76742,-0.17632 1.01687,-0.51017c0.41767,-0.55873 0.30292,-1.35245 -0.25378,-1.7733z" fill="#F7F1E6" id="svg_6"/>
    </g>
   </g>
  </g>
  <g id="svg_7"/>
  <g id="svg_8"/>
  <g id="svg_9"/>
  <g id="svg_10"/>
  <g id="svg_11"/>
  <g id="svg_12"/>
  <g id="svg_13"/>
  <g id="svg_14"/>
  <g id="svg_15"/>
  <g id="svg_16"/>
  <g id="svg_17"/>
  <g id="svg_18"/>
  <g id="svg_19"/>
  <g id="svg_20"/>
  <g id="svg_21"/>
 </g>
</svg>