<svg width="36" height="36" xmlns="http://www.w3.org/2000/svg" xmlns:svg="http://www.w3.org/2000/svg">
 <g class="layer">
  <title>Layer 1</title>
  <g fill="#4b4b4b" id="svg_1">
   <path d="m18,0.35556c-9.73973,0 -17.64444,7.90471 -17.64444,17.64444s7.90471,17.64444 17.64444,17.64444s17.64444,-7.90471 17.64444,-17.64444s-7.90471,-17.64444 -17.64444,-17.64444zm0,2.71454c8.24131,0 14.92992,6.6886 14.92992,14.92992s-6.6886,14.92992 -14.92992,14.92992s-14.92992,-6.6886 -14.92992,-14.92992s6.6886,-14.92992 14.92992,-14.92992z" fill="#e5e5e5" id="svg_2"/>
   <path d="m20.71411,10.19592a3.05378,3.05387 0 1 1 -6.10762,0a3.05378,3.05387 0 1 1 6.10762,0z" fill="#e5e5e5" id="svg_3"/>
   <path d="m20.89505,26.40418c-0.01873,0.74107 0.32873,0.95008 1.17458,1.03695l1.35943,0.02714l0,1.38984l-10.60649,0l0,-1.38984l1.49381,-0.02714c0.89335,-0.02714 1.10807,-0.37461 1.17458,-1.03695l0,-8.36428c0.0095,-1.32442 -1.70907,-1.11648 -2.92002,-1.07712l0,-1.37735l8.32411,-0.29996" fill="#e5e5e5" id="svg_4"/>
  </g>
 </g>
</svg>