<svg width="36" height="36" xmlns="http://www.w3.org/2000/svg" xmlns:svg="http://www.w3.org/2000/svg">
 <style type="text/css">.st0{fill-rule:evenodd;clip-rule:evenodd;}</style>
 <g class="layer">
  <title>Layer 1</title>
  <g id="svg_1">
   <path class="st0" d="m2.86512,18c0,8.3591 6.77579,15.13489 15.13489,15.13489c8.3591,0 15.13489,-6.77579 15.13489,-15.13489c0,-8.3591 -6.77579,-15.13489 -15.12797,-15.13489c-0.71214,0 -1.28602,-0.57387 -1.28602,-1.28602s0.57387,-1.2791 1.28602,-1.2791c9.77648,0 17.69308,7.93043 17.69308,17.70692c0,9.77648 -7.93043,17.7 -17.70692,17.69308c-9.77648,0 -17.69308,-7.93043 -17.69308,-17.70692c0,-3.62989 1.12008,-7.16989 3.20121,-10.14293l-1.46579,-1.2791c-0.53239,-0.46324 -0.58769,-1.2791 -0.12445,-1.81148l0.62918,-0.3941l5.57273,-1.52801c0.68449,-0.18668 1.38972,0.21434 1.57641,0.89883l0.03457,0.50472l-0.73289,5.73176c-0.08989,0.70523 -0.73289,1.20305 -1.43812,1.11316l-0.67758,-0.30421l-1.4243,-1.23761c-1.68703,2.49598 -2.59278,5.44137 -2.58586,8.4559l0,0l0.00003,-0.00001zm12.12727,-0.17286l0,-5.8493l3.47086,0c1.94977,0 3.13207,1.10624 3.13207,2.92464c0,1.85989 -1.11316,2.93156 -3.06985,2.93156l-3.53308,0l0,-0.00692l0,0.00001zm0,8.29688l0,-6.25722l3.47086,0l3.31184,6.25722l2.90391,0l-3.6368,-6.65133c1.98434,-0.66374 3.15972,-2.44758 3.15972,-4.64624c0,-3.02836 -2.08805,-4.97121 -5.43445,-4.97121l-6.29871,0l0,16.26879l2.52363,0l0,-0.00001z" fill="#e5e5e5" id="svg_2"/>
  </g>
 </g>
</svg>