<svg width="120" height="120" xmlns="http://www.w3.org/2000/svg" xmlns:svg="http://www.w3.org/2000/svg">
 <title>Temperature</title>
 <g class="layer">
  <title>Temperature</title>
  <g id="g28">
   <g id="g26">
    <path d="m64.90437,20.49126l0,-4.34593l8.87436,0l0,-1.64493c0,-7.27506 -5.89958,-13.17465 -13.17684,-13.17465l-1.48413,0c-7.27507,0 -13.17031,5.89958 -13.17031,13.17465l0,67.32266c-4.32636,3.86787 -7.06646,9.46976 -7.06646,15.7344c0,11.66227 9.45454,21.11682 21.119,21.11682c11.66445,0 21.119,-9.45455 21.119,-21.11682c0,-6.39502 -2.85094,-12.11207 -7.34025,-15.98213l0,-40.1889l-8.50497,0l0,-4.34591l8.50497,0l0,-6.10168l-8.87437,0l0,-4.34591l8.87437,0l0,-6.10166l-8.87437,0l0,-0.00001l0.00001,0.00001l0,0.00001l-0.00001,-0.00001zm7.22726,78.2548c0,6.69924 -5.4324,12.13164 -12.13164,12.13164s-12.13164,-5.4324 -12.13164,-12.13164c0,-4.9522 2.9726,-9.20466 7.22726,-11.0908l0,-33.62005c0,-2.70967 2.19469,-4.90438 4.90438,-4.90438s4.90438,2.1947 4.90438,4.90438l0,33.62222c4.25465,1.88394 7.22726,6.13644 7.22726,11.08861l0,0.00001l0,0.00001z" fill="#F29C21" id="path24"/>
   </g>
  </g>
 </g>
</svg>