<svg width="36" height="36" xmlns="http://www.w3.org/2000/svg" xmlns:svg="http://www.w3.org/2000/svg">
 <g class="layer">
  <title>Layer 1</title>
  <path d="m19.57716,20.91323l-3.15431,0c-0.86932,0 -1.57715,-0.75842 -1.57715,-1.68989l0,-7.77348l-3.46974,0c-0.82895,0 -1.2592,-1.06936 -0.68511,-1.71423l6.62404,-7.43551c0.35706,-0.40016 1.01316,-0.40016 1.37023,0l6.62404,7.43551c0.57409,0.64486 0.14384,1.71423 -0.68511,1.71423l-3.46974,0l0,7.77348c0,0.93147 -0.70782,1.68989 -1.57715,1.68989l0.00001,0z" fill="#e5e5e5" id="svg_1"/>
  <path d="m31.375,31.22499l-26.55,0c-2.43965,0 -4.425,-1.98535 -4.425,-4.425l0,-7.375c0,-2.43965 1.98535,-4.425 4.425,-4.425l2.2125,0c0.8142,0 1.475,0.6608 1.475,1.475s-0.6608,1.475 -1.475,1.475l-2.2125,0c-0.81273,0 -1.475,0.66228 -1.475,1.475l0,7.375c0,0.81273 0.66228,1.475 1.475,1.475l26.55,0c0.81273,0 1.475,-0.66228 1.475,-1.475l0,-7.375c0,-0.81273 -0.66228,-1.475 -1.475,-1.475l-2.2125,0c-0.8142,0 -1.475,-0.6608 -1.475,-1.475s0.6608,-1.475 1.475,-1.475l2.2125,0c2.43965,0 4.425,1.98535 4.425,4.425l0,7.375c0,2.43965 -1.98535,4.425 -4.425,4.425z" fill="#e5e5e5" id="svg_2"/>
 </g>
</svg>