<svg width="36" height="36" xmlns="http://www.w3.org/2000/svg" xmlns:svg="http://www.w3.org/2000/svg">
 <g class="layer">
  <title>Layer 1</title>
  <g display="none" id="Base"/>
  <g id="Dibujo">
   <path d="m15.88174,32.12015c-0.52009,0 -0.94134,0.42172 -0.94134,0.94134l0,1.88269c0,0.51962 0.42125,0.94134 0.94134,0.94134c0.51962,0 0.94134,-0.42172 0.94134,-0.94134l0,-1.88269c0,-0.51962 -0.42172,-0.94134 -0.94134,-0.94134zm-1.67418,-25.75939c0.18403,0.18403 0.42455,0.27581 0.66553,0.27581s0.48197,-0.09178 0.66553,-0.27581c0.36759,-0.36759 0.36759,-0.96346 0,-1.33106l-1.33106,-1.33106c-0.36759,-0.36759 -0.96346,-0.36759 -1.33106,0c-0.36759,0.36759 -0.36759,0.96346 0,1.33106l1.33106,1.33106zm7.32224,-2.48091c0.51962,0 0.94134,-0.42172 0.94134,-0.94134l0,-1.88269c0,-0.51962 -0.42172,-0.94134 -0.94134,-0.94134c-0.52009,0 -0.94134,0.42172 -0.94134,0.94134l0,1.88269c0,0.51962 0.42125,0.94134 0.94134,0.94134zm6.65671,2.75672c0.24098,0 0.4815,-0.09178 0.66553,-0.27581l1.33106,-1.33106c0.36759,-0.36759 0.36759,-0.96346 0,-1.33106c-0.36759,-0.36759 -0.96346,-0.36759 -1.33106,0l-1.33106,1.33106c-0.36759,0.36759 -0.36759,0.96346 0,1.33106c0.18356,0.18403 0.42455,0.27581 0.66553,0.27581zm-16.54081,22.65955c-0.52009,0 -0.94134,0.42172 -0.94134,0.94134l0,1.88269c0,0.51962 0.42125,0.94134 0.94134,0.94134c0.51962,0 0.94134,-0.42172 0.94134,-0.94134l0,-1.88269c0,-0.51962 -0.42172,-0.94134 -0.94134,-0.94134zm21.18023,-17.88552l-1.88269,0c-0.52009,0 -0.94134,0.42172 -0.94134,0.94134s0.42125,0.94134 0.94134,0.94134l1.88269,0c0.51962,0 0.94134,-0.42172 0.94134,-0.94134s-0.42172,-0.94134 -0.94134,-0.94134zm-16.94418,15.06149c-0.52009,0 -0.94134,0.42172 -0.94134,0.94134l0,1.88269c0,0.51962 0.42125,0.94134 0.94134,0.94134c0.51962,0 0.94134,-0.42172 0.94134,-0.94134l0,-1.88269c0,-0.51962 -0.42172,-0.94134 -0.94134,-0.94134zm11.55781,-11.2081c0.44478,-0.90181 0.67965,-1.89257 0.67965,-2.91205c0,-3.63359 -2.95582,-6.5894 -6.5894,-6.5894c-2.16556,0 -4.18662,1.0736 -5.41084,2.83391c-0.07907,-0.00235 -0.1572,-0.00988 -0.23675,-0.00988c-3.60723,0 -6.69248,2.35901 -7.6776,5.73466c-0.27111,-0.04942 -0.55586,-0.0866 -0.79449,-0.0866c-2.85509,0 -5.17739,2.32276 -5.17739,5.17739s2.32229,5.17739 5.17739,5.17739l3.29423,0l0,1.88269c0,0.51962 0.42125,0.94134 0.94134,0.94134c0.51962,0 0.94134,-0.42172 0.94134,-0.94134l0,-1.88269l6.5894,0l0,1.88269c0,0.51962 0.42125,0.94134 0.94134,0.94134c0.51962,0 0.94134,-0.42172 0.94134,-0.94134l0,-1.88269l3.29517,0c2.85462,0 5.17739,-2.32276 5.17739,-5.17739c0,-1.69818 -0.82556,-3.20339 -2.09214,-4.14803zm-5.90975,-7.61876c2.59528,0 4.70672,2.11143 4.70672,4.70672c0,0.7286 -0.16944,1.43555 -0.48762,2.07896c-0.44478,-0.12473 -0.91122,-0.19627 -1.3946,-0.19627c-0.2391,0 -0.52339,0.03718 -0.79544,0.0866c-0.75684,-2.59387 -2.75531,-4.58199 -5.27623,-5.36613c0.86509,-0.82509 2.02201,-1.30988 3.24716,-1.30988zm2.8245,15.06149l-16.94418,0c-1.81632,0 -3.2947,-1.47838 -3.2947,-3.2947s1.47838,-3.2947 3.2947,-3.2947c0.13038,0 0.3403,0.03201 0.56104,0.07625l0,0.86509c0,0.51962 0.42172,0.94134 0.94134,0.94134s0.94134,-0.42172 0.94134,-0.94134l0,-1.51274c0.50409,-2.94452 3.02877,-5.07666 6.02836,-5.07666c2.99818,0 5.52239,2.1312 6.02742,5.07431l0,1.51509c0,0.51962 0.42172,0.94134 0.94134,0.94134s0.94134,-0.42172 0.94134,-0.94134l0,-0.86462c0.22169,-0.04424 0.43302,-0.07672 0.56198,-0.07672c1.81632,0 3.2947,1.47838 3.2947,3.2947s-1.47838,3.2947 -3.2947,3.2947zm-4.23652,6.5894c-0.52009,0 -0.94134,0.42172 -0.94134,0.94134l0,1.88269c0,0.51962 0.42125,0.94134 0.94134,0.94134c0.51962,0 0.94134,-0.42172 0.94134,-0.94134l0,-1.88269c0,-0.51962 -0.42172,-0.94134 -0.94134,-0.94134z" fill="#e5e5e5" id="svg_1"/>
  </g>
 </g>
</svg>