<svg width="36" height="36" xmlns="http://www.w3.org/2000/svg" xmlns:svg="http://www.w3.org/2000/svg" xmlns:se="http://svg-edit.googlecode.com">
 <g class="layer">
  <title>wifi</title>
  <g data-name="15-wifi" id="_15-wifi">
   <path d="m14.96976,23.68302a3.03016,3.03016 0 1 0 3.03016,-3.03016a3.03354,3.03354 0 0 0 -3.03016,3.03016zm4.4075,0a1.37735,1.37735 0 1 1 -1.37735,-1.37735a1.37893,1.37893 0 0 1 1.37735,1.37735z" fill="#e5e5e5" id="svg_1"/>
   <path d="m34.36197,7.42281a23.13942,23.13942 0 0 0 -32.7241,0a0.82641,0.82641 0 0 0 0,1.16875l1.94812,1.94784a0.82641,0.82641 0 0 0 1.16875,0a18.73191,18.73191 0 0 1 26.49105,0a0.8313,0.8313 0 0 0 1.16875,0l1.94777,-1.94784a0.82641,0.82641 0 0 0 -0.00035,-1.16875l0.00001,0zm-2.54375,1.37507a20.38638,20.38638 0 0 0 -27.63646,0l-0.77985,-0.77972a21.48805,21.48805 0 0 1 29.19603,0l-0.77972,0.77972z" fill="#e5e5e5" id="svg_2"/>
   <path d="m17.99992,7.2567a16.42025,16.42025 0 0 0 -11.6872,4.84096a0.82641,0.82641 0 0 0 0,1.16875l1.94791,1.94784a0.82641,0.82641 0 0 0 1.16875,0a12.12065,12.12065 0 0 1 17.14108,0a0.82641,0.82641 0 0 0 1.16875,0l1.94791,-1.94784a0.82641,0.82641 0 0 0 0,-1.16875a16.42025,16.42025 0 0 0 -11.6872,-4.84096zm9.13787,6.22161a13.77588,13.77588 0 0 0 -18.27567,0l-0.78047,-0.7804a14.87754,14.87754 0 0 1 19.83654,0l-0.7804,0.7804z" fill="#e5e5e5" id="svg_3"/>
   <path d="m22.48009,20.13118a0.82386,0.82386 0 0 0 0.58434,-0.24207l1.94777,-1.94791a0.82641,0.82641 0 0 0 0,-1.16868a9.9169,9.9169 0 0 0 -14.02455,0a0.82641,0.82641 0 0 0 0,1.16868l1.94777,1.94791a0.82641,0.82641 0 0 0 1.16875,0a5.50938,5.50938 0 0 1 7.79152,0a0.82393,0.82393 0 0 0 0.58441,0.24207l-0.00001,0zm-8.92713,-1.96196l-0.78358,-0.78364a8.26793,8.26793 0 0 1 10.46095,0l-0.78358,0.78364a7.16668,7.16668 0 0 0 -8.89394,0l0.00014,0l0.00001,0z" fill="#e5e5e5" id="svg_4"/>
   <path d="m27.36587,28.19237l-18.73191,0a2.48197,2.48197 0 0 0 -2.47922,2.47922l0,2.20376a2.48197,2.48197 0 0 0 2.47922,2.47922l18.73191,0a2.48197,2.48197 0 0 0 2.47922,-2.47922l0,-2.20376a2.48197,2.48197 0 0 0 -2.47922,-2.47922zm0.82641,4.68298a0.82731,0.82731 0 0 1 -0.82641,0.82641l-18.73191,0a0.82731,0.82731 0 0 1 -0.82641,-0.82641l0,-2.20376a0.82731,0.82731 0 0 1 0.82641,-0.82641l18.73191,0a0.82731,0.82731 0 0 1 0.82641,0.82641l0,2.20376z" fill="#e5e5e5" id="svg_5"/>
   <circle cx="17.99992" cy="31.77347" fill="#e5e5e5" id="svg_6" r="0.82641"/>
   <circle cx="21.39536" cy="31.77347" fill="#e5e5e5" id="svg_7" r="0.82641"/>
   <circle cx="24.79086" cy="31.77347" fill="#e5e5e5" id="svg_8" r="0.82641"/>
   <circle cx="14.60449" cy="31.77347" fill="#e5e5e5" id="svg_9" r="0.82641"/>
   <circle cx="11.20899" cy="31.77347" fill="#e5e5e5" id="svg_10" r="0.82641"/>
  </g>
 </g>
</svg>